<svg xmlns="http://www.w3.org/2000/svg" width="520.974" height="406.486" viewBox="0 0 520.974 406.486">
  <g id="Group_5277" data-name="Group 5277" transform="translate(-459.817 -496.404)">
    <g id="Group_5279" data-name="Group 5279" transform="translate(705.57 519.623)">
      <g id="Group_5277-2" data-name="Group 5277" transform="translate(5.007 0.999)">
        <path id="Path_6408" data-name="Path 6408" d="M1400.8,1425.429l6.849-5.439c3.382-13.537,12.988-26.132,30.387-36.108,15.569-8.738,25.073-15.892,29.094-26.726,4.558-12.278-.108-23.322-15.185-29.193-8.666-3.217-18.869-6.406-26.586-4.067l-.646-14.808c10.088-2.829,25.24-1.588,38,3.149,27.686,10.277,33.859,32.017,27.067,50.314-6.077,16.37-19.6,24.77-36.252,34.2-15.241,8.587-23.024,17.749-26.859,30.3l-1.347,7.124Zm-12.8,32.737c3.306-8.908,11.648-12.933,20.075-9.805s11.88,11.531,8.573,20.44c-3.128,8.425-11.078,12.87-19.986,9.563C1388.237,1475.236,1384.873,1466.592,1388,1458.167Z" transform="translate(-1386.849 -1307.589)" fill="#0e7179"/>
      </g>
      <g id="Group_5278" data-name="Group 5278" transform="translate(0)">
        <path id="Path_6409" data-name="Path 6409" d="M1381.933,1421.665l1.842-6.438c3.383-13.536,12.988-26.131,30.387-36.108,15.569-8.738,25.073-15.893,29.094-26.727,4.558-12.277-.108-23.322-15.184-29.193-8.666-3.217-19.37-3.9-27.086-1.563l-.146-17.311c10.088-2.829,25.24-1.588,38,3.149,27.686,10.277,33.859,32.017,27.067,50.314-6.077,16.37-19.6,24.77-36.252,34.2-15.241,8.587-23.024,17.749-26.859,30.3l-2.084,6.348Zm-17.807,31.738c3.307-8.908,11.648-12.932,20.075-9.8s11.88,11.531,8.573,20.439c-3.128,8.426-11.078,12.87-19.985,9.563C1364.363,1470.473,1361,1461.829,1364.126,1453.4Z" transform="translate(-1362.975 -1302.826)" fill="#0096a1"/>
      </g>
    </g>
    <g id="Group_5285" data-name="Group 5285" transform="translate(601.545 496.404)">
      <g id="Group_5283" data-name="Group 5283" transform="translate(3.248)">
        <path id="Path_6412" data-name="Path 6412" d="M853.4,1107.027l-.232-7.488c-7.569-9.25-11.307-22.293-9.26-39.351,1.963-15.167,1.91-25.357-3.475-33.663-6.1-9.413-16.078-11.859-27.825-4.505-6.644,4.308-14.056,9.686-16.4,16.184l-10.5-7.133c3.218-8.378,11.824-18.152,21.607-24.5,21.226-13.762,39.32-6.88,48.416,7.148,8.137,12.551,6.988,26.141,4.95,42.406-1.9,14.864.414,24.9,7.071,33.954l4.205,4.571Zm15.942,25.544c-4.428-6.829-2.925-14.62,3.535-18.808s14-2.262,18.429,4.568c4.188,6.46,3.174,14.2-3.655,18.623C881.185,1141.142,873.525,1139.03,869.337,1132.571Z" transform="translate(-785.702 -999.09)" fill="#c97e1d"/>
      </g>
      <g id="Group_5284" data-name="Group 5284" transform="translate(0 2.929)">
        <path id="Path_6413" data-name="Path 6413" d="M839.045,1119.965l-3.48-4.559c-7.569-9.25-11.308-22.293-9.26-39.351,1.963-15.167,1.91-25.357-3.475-33.663-6.1-9.412-16.078-11.859-27.825-4.5-6.644,4.308-12.592,11.31-14.932,17.808l-11.968-8.756c3.218-8.378,11.823-18.153,21.606-24.5,21.226-13.762,39.32-6.88,48.415,7.148,8.137,12.551,6.988,26.142,4.95,42.406-1.9,14.864.413,24.9,7.071,33.954l3.295,4.68Zm12.694,28.473c-4.428-6.829-2.925-14.62,3.535-18.808s14-2.262,18.429,4.568c4.188,6.46,3.174,14.2-3.656,18.623C863.587,1157.01,855.927,1154.9,851.739,1148.438Z" transform="translate(-768.104 -1014.957)" fill="#fec570"/>
      </g>
    </g>
    <g id="Group_5288" data-name="Group 5288" transform="translate(816.04 496.404)">
      <g id="Group_5286" data-name="Group 5286" transform="translate(2.818 0)">
        <path id="Path_6414" data-name="Path 6414" d="M1943,1161.816l-1.1-7.258c-8.443-8.116-13.6-20.37-13.6-37.205.14-14.985-1.1-24.893-7.31-32.346-7.036-8.446-17.026-9.661-27.6-1.136-5.962,4.966-12.545,11.065-14.064,17.66l-11.052-5.713c2.153-8.527,9.385-19.041,18.163-26.354,19.045-15.867,37.453-11.283,47.939,1.3,9.382,11.261,9.85,24.618,9.765,40.68-.113,14.683,3.308,24.177,10.843,32.209l4.625,3.956Zm18.492,22.992c-5.105-6.127-4.552-13.882,1.244-18.712s13.358-3.834,18.463,2.293c4.828,5.8,4.745,13.44-1.383,18.546C1974.015,1191.765,1966.316,1190.6,1961.487,1184.808Z" transform="translate(-1868.27 -1059.334)" fill="#0e7179"/>
      </g>
      <g id="Group_5287" data-name="Group 5287" transform="translate(0 3.229)">
        <path id="Path_6415" data-name="Path 6415" d="M1932.376,1173.982l-3.918-4.03c-8.444-8.116-13.6-20.37-13.6-37.205.14-14.985-1.1-24.893-7.31-32.346-7.036-8.446-17.026-9.661-27.6-1.135-5.961,4.967-10.931,12.474-12.45,19.069l-12.667-7.123c2.153-8.527,9.385-19.041,18.163-26.354,19.045-15.867,37.453-11.283,47.939,1.3,9.382,11.261,9.85,24.618,9.765,40.681-.113,14.683,3.308,24.177,10.842,32.209l3.752,4.169Zm15.673,26.22c-5.1-6.128-4.552-13.882,1.244-18.712s13.358-3.835,18.464,2.293c4.829,5.8,4.744,13.441-1.384,18.546C1960.577,1207.158,1952.878,1206,1948.049,1200.2Z" transform="translate(-1854.832 -1074.727)" fill="#0096a1"/>
      </g>
    </g>
    <g id="Group_5291" data-name="Group 5291" transform="translate(805.193 567.883)">
      <g id="Group_5289" data-name="Group 5289" transform="translate(2.548 1.299)">
        <path id="Path_6416" data-name="Path 6416" d="M1829.032,1598.225l4.519-1.892c3.88-6.786,10.971-12.119,21.869-14.857,9.722-2.347,15.933-4.762,19.747-9.993,4.322-5.929,3.484-12.593-3.755-18.048-4.184-3.051-9.2-6.32-13.719-6.23l1.9-8.083c5.869.006,13.851,2.977,20.012,7.468,13.369,9.746,13.4,22.406,6.956,31.241-5.762,7.9-14.332,10.381-24.743,12.939-9.522,2.316-15.111,6.075-19.084,12.258l-1.808,3.637Zm-11.874,15.71c3.135-4.3,8.245-5.2,12.314-2.239s4.655,8.022,1.519,12.323c-2.966,4.069-7.928,5.258-12.229,2.122C1814.693,1623.175,1814.192,1618,1817.158,1613.934Z" transform="translate(-1815.263 -1539.121)" fill="#0e7179"/>
      </g>
      <g id="Group_5290" data-name="Group 5290" transform="translate(0)">
        <path id="Path_6417" data-name="Path 6417" d="M1819.43,1593.33l1.971-3.192c3.879-6.786,10.971-12.119,21.869-14.856,9.722-2.348,15.933-4.763,19.747-9.994,4.322-5.928,3.483-12.593-3.755-18.048-4.184-3.051-9.852-5.046-14.368-4.956l2.55-9.357c5.87.006,13.851,2.977,20.012,7.469,13.369,9.746,13.4,22.406,6.956,31.241-5.763,7.9-14.332,10.38-24.743,12.938-9.522,2.316-15.111,6.075-19.084,12.258l-2.087,3.107Zm-14.422,14.41c3.135-4.3,8.245-5.205,12.314-2.239s4.655,8.022,1.519,12.323c-2.966,4.068-7.927,5.258-12.229,2.122C1802.543,1616.98,1802.042,1611.809,1805.008,1607.74Z" transform="translate(-1803.113 -1532.927)" fill="#0096a1"/>
      </g>
    </g>
    <g id="Group_5294" data-name="Group 5294" transform="translate(497.378 550.487)">
      <g id="Group_5292" data-name="Group 5292" transform="translate(0 0)">
        <path id="Path_6418" data-name="Path 6418" d="M558.461,1326.821l-4.805.956c-5.152,5.878-13.163,9.694-24.387,10.209-9.995.366-16.562,1.5-21.34,5.865-5.415,4.95-5.919,11.648.089,18.434,3.494,3.822,7.761,8.025,12.2,8.835l-3.47,7.543c-5.751-1.174-12.982-5.673-18.127-11.3-11.162-12.211-8.671-24.624-.6-32,7.22-6.6,16.111-7.322,26.822-7.758,9.792-.375,16.017-2.947,21.141-8.217l2.5-3.2Zm14.761-13.034c-3.929,3.592-9.116,3.461-12.513-.256s-2.966-8.788.963-12.38c3.716-3.4,8.815-3.575,12.407.354C577.476,1305.223,576.938,1310.391,573.222,1313.788Z" transform="translate(-491.095 -1298.582)" fill="#0e7179"/>
      </g>
      <g id="Group_5293" data-name="Group 5293" transform="translate(2.239 1.78)">
        <path id="Path_6419" data-name="Path 6419" d="M566.9,1333.528l-2.567,2.736c-5.152,5.878-13.163,9.693-24.387,10.208-9.995.366-16.562,1.5-21.34,5.866-5.415,4.95-5.919,11.648.089,18.434,3.494,3.822,8.651,6.9,13.1,7.715l-4.36,8.663c-5.751-1.174-12.982-5.673-18.127-11.3-11.162-12.21-8.671-24.623-.6-32,7.22-6.6,16.111-7.322,26.822-7.757,9.792-.375,16.017-2.947,21.141-8.216l2.664-2.629Zm17-11.253c-3.929,3.591-9.116,3.461-12.513-.256s-2.966-8.788.963-12.379c3.716-3.4,8.815-3.576,12.407.353C588.15,1313.71,587.613,1318.878,583.9,1322.275Z" transform="translate(-501.77 -1307.069)" fill="#0096a1"/>
      </g>
    </g>
    <g id="Group_5297" data-name="Group 5297" transform="translate(584.865 591.418)">
      <g id="Group_5295" data-name="Group 5295" transform="translate(1.776 0)">
        <path id="Path_6420" data-name="Path 6420" d="M827.633,1721l-1.788-5.5c-7.606-5.223-13.191-14.085-15.354-27.172-1.817-11.666-4.055-19.208-9.839-24.2-6.555-5.661-14.477-5.322-21.6,2.664-4,4.626-8.33,10.213-8.663,15.534l-9.325-3.021c.578-6.9,4.848-16.007,10.731-22.819,12.765-14.781,27.662-13.584,37.43-5.148,8.74,7.548,10.82,17.87,12.818,30.366,1.8,11.428,5.678,18.368,12.567,23.643l4.1,2.48Zm17.329,15.5c-4.756-4.107-5.323-10.206-1.437-14.7s9.89-4.7,14.646-.59c4.5,3.885,5.415,9.838,1.308,14.593C855.594,1740.293,849.46,1740.38,844.962,1736.5Z" transform="translate(-761.068 -1645.14)" fill="#0e7179"/>
      </g>
      <g id="Group_5296" data-name="Group 5296" transform="translate(0 2.872)">
        <path id="Path_6421" data-name="Path 6421" d="M820.942,1731.821l-3.563-2.629c-7.606-5.223-13.192-14.085-15.354-27.172-1.817-11.666-4.055-19.208-9.839-24.2-6.555-5.661-14.476-5.322-21.6,2.664-4,4.627-6.893,11.1-7.226,16.423L752.6,1693c.578-6.9,4.848-16.007,10.731-22.819,12.765-14.781,27.662-13.583,37.431-5.147,8.74,7.547,10.82,17.87,12.818,30.366,1.8,11.428,5.678,18.368,12.567,23.643l3.452,2.758Zm15.553,18.367c-4.756-4.107-5.323-10.206-1.437-14.7s9.89-4.7,14.646-.59c4.5,3.885,5.415,9.838,1.308,14.594C847.127,1753.986,840.993,1754.073,836.495,1750.188Z" transform="translate(-752.601 -1658.833)" fill="#0096a1"/>
      </g>
    </g>
    <g id="Group_5312" data-name="Group 5312" transform="translate(689.667 692.496)">
      <g id="Group_5308" data-name="Group 5308" transform="translate(22.184)">
        <path id="Path_6428" data-name="Path 6428" d="M1389.624,2286.273l-1.771,8.4-8.829-2.438,5.774-12.055Z" transform="translate(-1379.025 -2264.801)" fill="#f39f85"/>
        <g id="Group_5307" data-name="Group 5307" transform="translate(5.712 4.727)">
          <path id="Path_6429" data-name="Path 6429" d="M1406.948,2260.419a4.6,4.6,0,0,0,2.628.2c4.278-3.316,4.606-15.831,4.606-15.831l-4.041-3.457-7.114,1.807-2.788,7.567a6.537,6.537,0,0,0,.959,6.139h0A12.758,12.758,0,0,0,1406.948,2260.419Z" transform="translate(-1399.857 -2241.332)" fill="#f7b58e"/>
        </g>
        <path id="Path_6430" data-name="Path 6430" d="M1397.779,2235.272c.738-1.186,1.517-4.214,2.762-3.58.907.462,4.146,1.645,5.25,2,2.631.84,7.651,1.309,8.93-2.7.639-2-.752-4.348-1.818-5.254a5.6,5.6,0,0,0-3.79-1.263c-3.221.087-7.777,1.1-9.212.3-2.413-1.342-5.468-.65-6.131,1.552a23,23,0,0,0-.175,8.866,12.905,12.905,0,0,0,1.531,4.277h0Z" transform="translate(-1389.351 -2224.09)" fill="#122043"/>
        <path id="Path_6431" data-name="Path 6431" d="M1397.892,2262.532a2.08,2.08,0,0,1,2.382,1c.563.884.411,1.868-.341,2.2a2.08,2.08,0,0,1-2.382-1C1396.988,2263.848,1397.14,2262.863,1397.892,2262.532Z" transform="translate(-1392.225 -2251.913)" fill="#f7b58e"/>
      </g>
      <path id="Path_6432" data-name="Path 6432" d="M1340,2317.226c-16.434-.919-17.826,13.7-19.206,29.583a299.658,299.658,0,0,0-.36,38.128h38.245s-.009-16.937-.409-33.875C1357.882,2334.63,1357.379,2318.2,1340,2317.226Z" transform="translate(-1313.988 -2291.659)" fill="#c97e1d"/>
      <path id="Path_6433" data-name="Path 6433" d="M1453.629,2528.244s3.755-2.593,5.15-1.975.3,3.228.3,3.228Z" transform="translate(-1410.99 -2443.346)" fill="#f39f85"/>
      <path id="Path_6434" data-name="Path 6434" d="M1313.856,2427.213l-1.787,12.115,29.286,14.6-3.193,3.173s-32.883-5.919-37.53-10.264-1.43-21.717-1.43-21.717Z" transform="translate(-1298.118 -2369.998)" fill="#f7b58e"/>
      <path id="Path_6435" data-name="Path 6435" d="M1466.178,2435.107c6.705-2.368,2.612-25.433,2.612-25.433l-3.963-.038S1459.473,2437.476,1466.178,2435.107Z" transform="translate(-1417.648 -2358.763)" fill="#f39f85"/>
      <path id="Path_6436" data-name="Path 6436" d="M1437.647,2531.037l6.9,4.432c2.776,1.275,5.234-.718,7.234-3.531a2.6,2.6,0,0,0-2.165-4.1c-2.481.036-5.491.541-6.985.645Z" transform="translate(-1399.39 -2444.551)" fill="#f7b58e"/>
      <path id="Path_6437" data-name="Path 6437" d="M1442.474,2351.2l-4.682,2.812s-19.754-31.958-9.988-23.542A57.238,57.238,0,0,1,1442.474,2351.2Z" transform="translate(-1390.277 -2300.276)" fill="#c97e1d"/>
      <g id="Group_5309" data-name="Group 5309" transform="translate(20.798 194.795)">
        <path id="Path_6438" data-name="Path 6438" d="M1382.134,2950.94s.02,4.579,9.217,7.329c1.887.563,1.273,1.122,1.628,1.916h-10.585l-4.144-4.659-1.289,1.107-2.989-2.936s1.4-4.249,3.671-4.286Z" transform="translate(-1373.972 -2945.333)"/>
        <path id="Path_6439" data-name="Path 6439" d="M1393.571,2936.182l-1.719,3.965h0a4.148,4.148,0,0,1-4.3-1.307l-.189-.224,1.39-4.077Z" transform="translate(-1383.69 -2934.539)" fill="#f7b58e"/>
      </g>
      <path id="Path_6440" data-name="Path 6440" d="M1302.073,2349.638s6.272-29.178,21.1-28.5-6.445,30.6-6.445,30.6Z" transform="translate(-1300.989 -2294.52)" fill="#c97e1d"/>
      <path id="Path_6441" data-name="Path 6441" d="M1439.366,2380.617c9.293-7.505-8.962-46.731-8.962-46.731l-4.424.445S1426.32,2386.344,1439.366,2380.617Z" transform="translate(-1390.922 -2303.781)" fill="#f7b58e"/>
      <path id="Path_6442" data-name="Path 6442" d="M1389.624,2310.995l-.562-2.874-7.593-1.511-2.445,3.036Z" transform="translate(-1356.841 -2283.984)" fill="#fff"/>
      <path id="Path_6443" data-name="Path 6443" d="M1423.848,2302.311l.563-7.479s-3.731-5.723-7.262-4.186c-.649,1.566.48,4.727.48,4.727l1.8,7.383Z" transform="translate(-1384.366 -2272.207)" fill="#f7b58e"/>
      <path id="Path_6444" data-name="Path 6444" d="M1400.037,2564.288s5.329,33.42,4.076,48.878-18.194,55.848-18.194,55.848l-7.374-2.144s-.559-27.02,6.681-44.758a16.508,16.508,0,0,0,0-12.176,204.423,204.423,0,0,1-8.266-25.632l.565-20.017Z" transform="translate(-1355.346 -2471.01)" fill="#4e4c70"/>
      <g id="Group_5310" data-name="Group 5310" transform="translate(32.225 17.818)">
        <path id="Path_6445" data-name="Path 6445" d="M1422.439,2301.05l.132-.013.531-7.057c-.5-.72-3.673-5.114-6.615-4.012-.388,1.222.247,3.524.547,4.371l.021.085a4.573,4.573,0,0,0-.787-.129c-.254-.785-.985-3.3-.393-4.737l.056-.133.133-.059c3.757-1.627,7.545,4.076,7.7,4.321l.067.1-.595,7.9-.437.044A4.817,4.817,0,0,0,1422.439,2301.05Z" transform="translate(-1415.649 -2289.075)" fill="#f39f85"/>
      </g>
      <g id="Group_5311" data-name="Group 5311" transform="translate(7.767 198.004)">
        <path id="Path_6446" data-name="Path 6446" d="M1333.279,2963.822s3.3,3.062,10.827,4.979c1.656.421,3.443-.143,3.443,2.591h-9.134l-7.6-1.314v1.314h-4.1s-1.143-6.71,1.254-7.57Z" transform="translate(-1326.445 -2959.002)"/>
        <path id="Path_6447" data-name="Path 6447" d="M1336.513,2946.244l.807,4.82h0a4.642,4.642,0,0,1-5.026.169l-.281-.169.409-4.82Z" transform="translate(-1330.486 -2946.244)" fill="#f7b58e"/>
      </g>
      <path id="Path_6448" data-name="Path 6448" d="M1345.3,2564.288l-17.742,106.157h-7.1s-6.115-28.6-1.392-51.69a34.877,34.877,0,0,0,.315-12.177c-4.5-29.819-1.068-42.289-1.068-42.289Z" transform="translate(-1311.869 -2471.01)" fill="#9390aa"/>
    </g>
    <g id="Group_5320" data-name="Group 5320" transform="translate(803.262 687.56)">
      <g id="Group_5313" data-name="Group 5313" transform="translate(18.508 202.697)">
        <path id="Path_6449" data-name="Path 6449" d="M1791.574,2961.662s-1.482,2.05-8.462,3.827c-1.537.392-3.194.659-3.194,3.194h6.891l7.046-1.219v1.219h3.805s1.06-6.223-1.162-7.022Z" transform="translate(-1779.918 -2957.191)"/>
        <path id="Path_6450" data-name="Path 6450" d="M1821.111,2945.357l.362,4.471h0a4.3,4.3,0,0,0,4.662.156l.262-.156v-4.471Z" transform="translate(-1809.816 -2945.357)" fill="#f7b58e"/>
      </g>
      <g id="Group_5314" data-name="Group 5314" transform="translate(53.854 203.588)">
        <path id="Path_6451" data-name="Path 6451" d="M1920.488,2964.911s-1.481,2.049-8.462,3.827c-1.537.392-3.194.658-3.194,3.195h6.891l7.046-1.219v1.219h3.806s1.06-6.224-1.163-7.022Z" transform="translate(-1908.832 -2960.44)"/>
        <path id="Path_6452" data-name="Path 6452" d="M1950.025,2948.606l.362,4.47h0a4.306,4.306,0,0,0,4.662.156l.261-.156v-4.47Z" transform="translate(-1938.731 -2948.606)" fill="#f7b58e"/>
      </g>
      <path id="Path_6453" data-name="Path 6453" d="M1810.867,2519.212l1.715,112.291h8.181s12.453-90.659,9.795-112.291S1810.867,2519.212,1810.867,2519.212Z" transform="translate(-1783.873 -2426.38)" fill="#3e0c12"/>
      <path id="Path_6454" data-name="Path 6454" d="M1842.4,2544.573s2.848,34.5,9.389,53.59,18.353,58.725,18.353,58.725h8.467s-14.141-82.815-10.907-112.315h-25.3Z" transform="translate(-1806.763 -2451.766)" fill="#601215"/>
      <path id="Path_6455" data-name="Path 6455" d="M1747.34,2336.118s-10.083,23.512-12.642,23.512c-2.047,0,.768-19.2.768-19.2h-8.444s-10.619,32.907-2.175,38.92,27-17.017,27-17.017Z" transform="translate(-1719.072 -2300.466)" fill="#fec570"/>
      <path id="Path_6456" data-name="Path 6456" d="M1887.91,2554.1l-3.055,7.554c-1.472,2.968-6.88,3.043-10.471,2.1a.746.746,0,0,1-.352-1.224c1.972-2.163,7.089-7.7,8.864-8.945Z" transform="translate(-1829.577 -2458.308)" fill="#f7b58e"/>
      <path id="Path_6457" data-name="Path 6457" d="M1821.844,2318.1a9.479,9.479,0,0,0-8.117,4.5,6.4,6.4,0,0,0-.993,3.225v54.344h30.854v-50.808s-.631-11.3-11.675-11.3C1827.211,2318.064,1823.991,2318.081,1821.844,2318.1Z" transform="translate(-1785.228 -2287.362)" fill="#fec570"/>
      <g id="Group_5315" data-name="Group 5315" transform="translate(26.994 44.023)">
        <path id="Path_6458" data-name="Path 6458" d="M1811.89,2415.456v-48.808l-1.024.034v48.774Z" transform="translate(-1810.866 -2366.648)" fill="#2b2c51"/>
      </g>
      <path id="Path_6459" data-name="Path 6459" d="M1853.009,2280.246l-3.29,12.386a7.831,7.831,0,0,1-6.53,1.293c-3.721-.988-3.008-3.671-3.008-3.671l2.108-7.938,5.888.028Z" transform="translate(-1805.11 -2259.913)" fill="#f39f85"/>
      <path id="Path_6460" data-name="Path 6460" d="M1836.38,2240.891a4.773,4.773,0,0,1-2.572-1.453c-1.906-6.142,5.627-19.335,5.627-19.335l11.418,5.333-2.144,9.612a8.263,8.263,0,0,1-4.738,5.765h0A13.258,13.258,0,0,1,1836.38,2240.891Z" transform="translate(-1800.3 -2216.26)" fill="#f7b58e"/>
      <path id="Path_6461" data-name="Path 6461" d="M1839.478,2214.016a26.547,26.547,0,0,1-8.167-2.169c-3.989-1.857-.084-5.759-.084-5.759s2.723,2.238,8.446,2.886c3.862.438,5.053-.019,7.1,1.885,2.778,2.586.443,8.231.443,8.231L1842.138,2231l-.669-.177s1.791-7.406,2.457-9.912c-.4-1.327-1.156-1.528-1.816-1.4a1.94,1.94,0,0,0-1.445,1.438l-3.414,12.854s-9.123,1.354-11.038.162,2.01-10.348,2.01-10.348a3.956,3.956,0,0,1,3.986,2.174c1.3,2.555,4.1,1,4.1,1Z" transform="translate(-1794.63 -2206.088)" fill="#122043"/>
      <path id="Path_6462" data-name="Path 6462" d="M1747.325,2323.128l.3-1.622c.659-3.59,4.09-8.056,7.547-9.228h3.584l-1.11,7.659-5.059,3.191Z" transform="translate(-1737.754 -2283.162)" fill="#f7b58e"/>
      <path id="Path_6463" data-name="Path 6463" d="M1882.508,2254.643a2.164,2.164,0,0,0-2.5,1.443,1.864,1.864,0,0,0,.762,2.6,2.164,2.164,0,0,0,2.5-1.443A1.864,1.864,0,0,0,1882.508,2254.643Z" transform="translate(-1833.902 -2241.27)" fill="#f7b58e"/>
      <path id="Path_6464" data-name="Path 6464" d="M1761.087,2330.022l-6.983,4.041s4.382-.044,4.453,0l7.392-6.185s-.536-1.08-2.211-.168A8.5,8.5,0,0,0,1761.087,2330.022Z" transform="translate(-1742.674 -2294.097)" fill="#f7b58e"/>
      <path id="Path_6465" data-name="Path 6465" d="M1885.854,2330.466s17.444,19.378,17.444,30.993-14.159,32.086-14.159,32.086l-6.994-2.047s6.312-25.333,6.312-32.071-12.965-16.619-12.965-16.619" transform="translate(-1830.778 -2296.364)" fill="#fec570"/>
      <g id="Group_5316" data-name="Group 5316" transform="translate(44.402 46.038)">
        <path id="Path_6466" data-name="Path 6466" d="M1887.124,2391.021c0,5.8-5.136,27.014-6.342,31.955.354.094.5.122,1.036.261,1.484-6.105,6.329-26.514,6.329-32.216,0-6.912-12.629-16.616-13.166-17.025l-.621.813C1874.487,2374.906,1887.124,2384.61,1887.124,2391.021Z" transform="translate(-1874.359 -2373.995)" fill="#2b2c51"/>
      </g>
      <g id="Group_5319" data-name="Group 5319" transform="translate(0 7.004)">
        <path id="Path_6467" data-name="Path 6467" d="M1769.858,2293.984s.495,7.628-4.854,13.032a2.015,2.015,0,0,1-1.385.557,5.134,5.134,0,0,1-2.344-.7,2.246,2.246,0,0,1-1.319-1.22.972.972,0,0,1,.227-.992c1.107-1.272,4.588-5.687,3.806-10.08A7.582,7.582,0,0,1,1769.858,2293.984Z" transform="translate(-1746.881 -2276.642)" fill="#006854"/>
        <path id="Path_6468" data-name="Path 6468" d="M1760.67,2306.614a1.486,1.486,0,0,1-.714-.88.971.971,0,0,1,.227-.992c1.107-1.272,4.588-5.687,3.806-10.08a6.414,6.414,0,0,1,2.877-.911C1766.431,2298.413,1765.047,2301.392,1760.67,2306.614Z" transform="translate(-1746.881 -2276.719)" fill="#054639"/>
        <g id="Group_5318" data-name="Group 5318" transform="translate(16.035 20.702)">
          <g id="Group_5317" data-name="Group 5317" transform="translate(0.265 0.017)">
            <path id="Path_6469" data-name="Path 6469" d="M1773.885,2309.713c-.353,1.039-.969,1.768-1.378,1.63s-.453-1.093-.1-2.132.97-1.769,1.378-1.63S1774.238,2308.675,1773.885,2309.713Z" transform="translate(-1772.086 -2307.463)" fill="#0c6854"/>
            <path id="Path_6470" data-name="Path 6470" d="M1777.219,2307.355l-.428-.16,0,.226.279.152Z" transform="translate(-1775.441 -2307.195)" fill="#0c6854"/>
            <path id="Path_6471" data-name="Path 6471" d="M1772.388,2320.917l-.521-.17.618-.013Z" transform="translate(-1771.866 -2317.022)" fill="#0c6854"/>
          </g>
          <path id="Path_6472" data-name="Path 6472" d="M1772.615,2309.282c-.353,1.038-.97,1.768-1.378,1.631s-.453-1.094-.1-2.133.969-1.769,1.378-1.629S1772.968,2308.244,1772.615,2309.282Z" transform="translate(-1770.899 -2307.134)" fill="#054639"/>
        </g>
        <path id="Path_6473" data-name="Path 6473" d="M1803.387,2272.839l.821.1a2.816,2.816,0,0,1,2.511,3.073l-.27,2.157a2.816,2.816,0,0,1-3.193,2.359l-.82-.1Z" transform="translate(-1777.753 -2261.541)" fill="#054639"/>
        <path id="Path_6474" data-name="Path 6474" d="M1712.7,2241.922c-.738,5.889.017,10.833,1.687,11.042s3.622-4.4,4.361-10.284-.016-10.833-1.687-11.042S1713.438,2236.032,1712.7,2241.922Z" transform="translate(-1712.416 -2231.631)" fill="#054639"/>
        <path id="Path_6475" data-name="Path 6475" d="M1729.8,2257.658l-2.584,1.256-.433,3.449,2.183,2.544,1.415-4.379Z" transform="translate(-1722.843 -2250.521)" fill="#fff"/>
        <path id="Path_6476" data-name="Path 6476" d="M1726.112,2243.895c.621-4.949.183-9.219-.962-10.583l.007-.006a49.126,49.126,0,0,0,20.726,10.976l-.944,7.527s-15.769-2.885-22.368,2.113l-.008-.006C1724.011,2252.879,1725.491,2248.847,1726.112,2243.895Z" transform="translate(-1719.781 -2232.846)" fill="#006854"/>
        <path id="Path_6477" data-name="Path 6477" d="M1726.211,2263.872c-.12.956-.071,1.75.109,1.773s.424-.735.543-1.691.071-1.751-.109-1.774S1726.331,2262.915,1726.211,2263.872Z" transform="translate(-1722.381 -2253.803)" fill="#c97e1d"/>
      </g>
      <path id="Path_6478" data-name="Path 6478" d="M1761.479,2317.982a8.225,8.225,0,0,0,3.9.636c2.031,0,2.945-2.5,3.292-3.854.122-.478.23-1.156-.367-1.461h-4.423Z" transform="translate(-1748.027 -2283.578)" fill="#f7b58e"/>
    </g>
    <g id="Group_5324" data-name="Group 5324" transform="translate(459.817 663.289)">
      <path id="Path_6479" data-name="Path 6479" d="M546.156,2691.672c-4.466,31.938.422,65.027.422,64.738s3.56,0,3.56,0,4.934-38.821,6.092-51.78,0-13.823,0-13.823S550.621,2659.734,546.156,2691.672Z" transform="translate(-521.118 -2523.793)" fill="#f39f85"/>
      <path id="Path_6480" data-name="Path 6480" d="M505.747,2379.49l-10.921,6.962-4.608-9.6,14.111-16.172Z" transform="translate(-481.883 -2294.023)" fill="#c97e1d"/>
      <g id="Group_5322" data-name="Group 5322" transform="translate(59.595)">
        <path id="Path_6481" data-name="Path 6481" d="M699.078,2186.559l-13.37,34.937-8.539-6.354,19.078-32.163Z" transform="translate(-677.169 -2165.045)" fill="#f7b58e"/>
        <g id="Group_5321" data-name="Group 5321" transform="translate(19.078)">
          <path id="Path_6482" data-name="Path 6482" d="M750.356,2127.221a5.506,5.506,0,0,0-1.969,3.405l-1.638,4.876.52.917,2.311,2.661a3.506,3.506,0,0,1,.912-1.824l3.637-4.073s5.968-6.958.4-9.318c3.268-6.465.928-6.3.928-6.3l-2.926,5.538Z" transform="translate(-746.749 -2117.568)" fill="#f7b58e"/>
          <path id="Path_6483" data-name="Path 6483" d="M752.377,2140.634s-1.2-1.135-.132-3.831-.55-2.508-.55-2.508-4.464,10.512-3.031,11.709S752.377,2140.634,752.377,2140.634Z" transform="translate(-747.933 -2129.706)" fill="#f7b58e"/>
        </g>
      </g>
      <path id="Path_6484" data-name="Path 6484" d="M557.456,2308.5l4,.313,13.6-15.857,7.346,8.363a222.069,222.069,0,0,1-16.6,25.9c-.561,2.677-3.483,29.633-3.483,29.633H538.738s3.757-19.779-2.88-30.786S557.456,2308.5,557.456,2308.5Z" transform="translate(-514.276 -2244.864)" fill="#c97e1d"/>
      <path id="Path_6485" data-name="Path 6485" d="M584.128,2691.672c-4.466,31.938.422,65.027.422,64.738s3.56,0,3.56,0,4.934-38.821,6.092-51.78,0-13.823,0-13.823S588.593,2659.734,584.128,2691.672Z" transform="translate(-548.678 -2523.793)" fill="#f7b58e"/>
      <g id="Group_5323" data-name="Group 5323" transform="translate(30.452 38.967)">
        <path id="Path_6486" data-name="Path 6486" d="M584.466,2259.685l-13.586,4.756,1.339,10.142c.019.144.058.281.084.422.261.047.522.1.782.159.043.011.083.026.126.036s.082.015.123.025a9.3,9.3,0,0,1,6.352,6.358,16.03,16.03,0,0,0,5.88-.074,5.9,5.9,0,0,0,3.088-1.332C591.521,2273.922,584.466,2259.685,584.466,2259.685Z" transform="translate(-570.88 -2259.685)" fill="#f7b58e"/>
      </g>
      <path id="Path_6487" data-name="Path 6487" d="M554.891,2256.753a8.943,8.943,0,0,0-.279,7.809c1.847,3.909,1.684,8.3.454,10.7-.838,1.641-3.031,3.281-4.976,4.493a7.682,7.682,0,0,0-3.608,5.814c-.3,3.3-.616,7.349-3.442,8.322-8.2,2.825-11.206,2.552-12.3-4.282a13.893,13.893,0,0,1,.708-6.7,11.976,11.976,0,0,0-.253-8.974,15.645,15.645,0,0,1-1.548-5.357c0-1.549,1.419-3.726,2.908-5.585a11.484,11.484,0,0,0,2.414-8.231c-.264-2.959.15-6.739,3.151-9.3,5.6-4.781,18.039,2.743,18.039,2.743S557.353,2251.838,554.891,2256.753Z" transform="translate(-510.501 -2209.247)" fill="#122043"/>
      <path id="Path_6488" data-name="Path 6488" d="M468.153,2419.664l-5.245,5.43c-3.485,3.608-4.562,8.63-.375,11.39l17.139,13.613-1.575,2.949a7.193,7.193,0,0,0,.628,7.754l1.812,2.372,4.01-13.764-12.427-15.516a2.978,2.978,0,0,1,.642-4.629h0Z" transform="translate(-459.817 -2336.833)" fill="#f7b58e"/>
      <path id="Path_6489" data-name="Path 6489" d="M555.059,2525.992a57.544,57.544,0,0,1,3.456,18.041c0,4.988-4.32,42.6-4.32,42.6H531.74c1.521-27.781-6.9-31.187-6.9-43.2,0-8.47,6.634-17.45,6.634-17.45Z" transform="translate(-507.011 -2414.008)" fill="#006854"/>
      <path id="Path_6490" data-name="Path 6490" d="M548.307,2950.723s-1.963,1.543-1.6,3.51.87,6.574.87,6.574h2.019l-.062-4.3c.006-.281,4.33,4.3,5.062,4.3h10.683s.71-2.9-5.563-3.83S548.307,2950.723,548.307,2950.723Z" transform="translate(-522.849 -2722.283)"/>
      <path id="Path_6491" data-name="Path 6491" d="M589.919,2950.723s-1.963,1.543-1.6,3.51.87,6.574.87,6.574H591.2l-.062-4.3c.006-.281,4.329,4.3,5.062,4.3h10.683s.71-2.9-5.564-3.83S589.919,2950.723,589.919,2950.723Z" transform="translate(-553.051 -2722.283)"/>
      <path id="Path_6492" data-name="Path 6492" d="M546.855,2729.849" transform="translate(-522.99 -2561.97)" fill="#ffd147"/>
    </g>
    <g id="Group_5337" data-name="Group 5337" transform="translate(564.948 687.56)">
      <g id="Group_5325" data-name="Group 5325" transform="translate(46.802 203.557)">
        <path id="Path_6493" data-name="Path 6493" d="M1020.867,2964.758s3.054,2.833,10.018,4.607c1.533.39,3.186-.131,3.186,2.4h-8.451l-7.029-1.215v1.215h-3.8s-1.057-6.208,1.16-7Z" transform="translate(-1014.379 -2960.299)" fill="#212b53"/>
        <path id="Path_6494" data-name="Path 6494" d="M1020,2948.494l.427,4.459h0a4.294,4.294,0,0,1-4.651.156l-.261-.156-1.577-4.459Z" transform="translate(-1013.943 -2948.494)" fill="#f7b58e"/>
      </g>
      <g id="Group_5326" data-name="Group 5326" transform="translate(13.026 203.557)">
        <path id="Path_6495" data-name="Path 6495" d="M897.68,2964.758s3.054,2.833,10.018,4.607c1.533.39,3.186-.131,3.186,2.4h-8.451l-7.029-1.215v1.215h-3.8s-1.057-6.208,1.16-7Z" transform="translate(-891.191 -2960.299)" fill="#212b53"/>
        <path id="Path_6496" data-name="Path 6496" d="M896.815,2948.494l.427,4.459h0a4.3,4.3,0,0,1-4.651.156l-.261-.156-1.577-4.459Z" transform="translate(-890.754 -2948.494)" fill="#f7b58e"/>
      </g>
      <path id="Path_6497" data-name="Path 6497" d="M954.81,2541.417h9.723l3.416,112.681h-6.569l-19.3-91.711Z" transform="translate(-914.98 -2449.475)" fill="#3e0c12"/>
      <path id="Path_6498" data-name="Path 6498" d="M920.711,2541.417,897.986,2654.1h-7.232l2.965-112.681Z" transform="translate(-877.728 -2449.475)" fill="#601215"/>
      <g id="Group_5332" data-name="Group 5332" transform="translate(0 110.517)">
        <g id="Group_5327" data-name="Group 5327" transform="translate(8.688)">
          <path id="Path_6499" data-name="Path 6499" d="M889.485,2615.361l-2.179-.155a3.836,3.836,0,0,0-1.013-2.655,5.472,5.472,0,0,0-4.03-1.295c-2,0-3.508.443-4.348,1.282a2.628,2.628,0,0,0-.8,1.835l-2.181.124a4.618,4.618,0,0,1,1.356-3.365c1.278-1.308,3.286-1.972,5.97-1.972a7.541,7.541,0,0,1,5.647,1.982A5.863,5.863,0,0,1,889.485,2615.361Z" transform="translate(-874.934 -2609.16)" fill="#212b53"/>
        </g>
        <g id="Group_5330" data-name="Group 5330" transform="translate(0 4.243)">
          <path id="Path_6539" data-name="Path 6539" d="M0,0H32.54V20.937H0Z" transform="translate(0 4.491)" fill="#2b2c51"/>
          <g id="Group_5329" data-name="Group 5329">
            <g id="Group_5328" data-name="Group 5328">
              <path id="Path_6500" data-name="Path 6500" d="M860.707,2673.739c0,1.277-.607,1.423-1.358,1.423s-1.358-.146-1.358-1.423V2669.3a84.326,84.326,0,0,1-14.744-2.64v16.515c0,1.476.571,2.671,1.438,2.671h29.665c.866,0,1.438-1.2,1.438-2.671v-16.46a97.482,97.482,0,0,1-15.08,2.553Z" transform="translate(-843.247 -2655.135)" fill="#fec570"/>
              <path id="Path_6501" data-name="Path 6501" d="M904,2668.27a62.448,62.448,0,0,1-5.049,8.53,92.725,92.725,0,0,1-7.8,9.188h17.967c.866,0,1.438-1.2,1.438-2.671v-16.46C907.505,2667.566,905.735,2667.962,904,2668.27Z" transform="translate(-878.019 -2655.28)" fill="#c97e1d"/>
              <path id="Path_6502" data-name="Path 6502" d="M874.349,2624.633H844.685c-.866,0-1.438,1.2-1.438,2.67v8.01a50.415,50.415,0,0,0,14.744,2.506v-1.084c0-1.276.608-1.422,1.358-1.422s1.358.146,1.358,1.422v1.08a51.985,51.985,0,0,0,15.08-2.5v-8.01C875.787,2625.828,875.215,2624.633,874.349,2624.633Z" transform="translate(-843.247 -2624.633)" fill="#0096a1"/>
            </g>
          </g>
        </g>
        <g id="Group_5331" data-name="Group 5331" transform="translate(14.353 18.022)">
          <path id="Path_6503" data-name="Path 6503" d="M898.536,2680.875h-2.354a.589.589,0,0,1-.589-.588v-1.375a.589.589,0,0,1,.589-.588h2.354a.589.589,0,0,1,.589.588v1.375A.589.589,0,0,1,898.536,2680.875Zm-2.354-2.384a.422.422,0,0,0-.421.421v1.375a.421.421,0,0,0,.421.421h2.354a.421.421,0,0,0,.42-.421v-1.375a.422.422,0,0,0-.42-.421Z" transform="translate(-895.593 -2677.383)" fill="#fff"/>
          <path id="Path_6504" data-name="Path 6504" d="M901.784,2676.951a.147.147,0,0,1-.152.141h0a.147.147,0,0,1-.151-.141v-1.92a.147.147,0,0,1,.151-.142h0a.147.147,0,0,1,.152.142Z" transform="translate(-899.867 -2674.889)" fill="#fff"/>
        </g>
      </g>
      <g id="Group_5333" data-name="Group 5333" transform="translate(90.982 73.12)">
        <path id="Path_6505" data-name="Path 6505" d="M1180.412,2477.835c.336.268,1.579,1.08,4.592,1.33,2.7.226,8.463-.952,7.365,1.719-2.589,1.4-5.462,3.349-5.462,3.349-1.65.693-4.574-.026-6.311-.818l-5.044-3.08s-.433-2.836-.478-2.966l1.156-.47A13.914,13.914,0,0,0,1180.412,2477.835Z" transform="translate(-1175.074 -2475.767)" fill="#f7b58e"/>
        <path id="Path_6506" data-name="Path 6506" d="M1184.709,2476.029a2.148,2.148,0,0,0,.3.324c-.36.145-.706.307-1.044.48-1.416.039-2.831.12-4.247.173.088-.816.208-1.963.2-2.046l9.2-2.19s.745.969-.937,2.012A9.418,9.418,0,0,1,1184.709,2476.029Z" transform="translate(-1178.445 -2472.77)" fill="#f7b58e"/>
      </g>
      <path id="Path_6507" data-name="Path 6507" d="M892.667,2585.6l3.057,6.724s-.658,3.7-2.01,5.136a1.44,1.44,0,0,1-1.6.323c-1.274-.527-4.213-1.8-4.7-2.5a1.378,1.378,0,0,1-.15-1.2l.891-2.961.11-6.9Z" transform="translate(-875.143 -2480.547)" fill="#f7b58e"/>
      <g id="Group_5335" data-name="Group 5335" transform="translate(21.479 0)">
        <path id="Path_6508" data-name="Path 6508" d="M950.51,2280.146l.1,9.008-8.026-.431-.507-13.966Z" transform="translate(-936.459 -2255.93)" fill="#f39f85"/>
        <g id="Group_5334" data-name="Group 5334" transform="translate(5.524 4.845)">
          <path id="Path_6509" data-name="Path 6509" d="M951.6,2243.965a4.861,4.861,0,0,0,2.7-.643c3.235-4.7-.45-17.385-.45-17.385l-5.17-2.177-6.569,4.1-.374,8.5a6.9,6.9,0,0,0,2.933,5.861h0A13.467,13.467,0,0,0,951.6,2243.965Z" transform="translate(-941.732 -2223.76)" fill="#f7b58e"/>
        </g>
        <path id="Path_6510" data-name="Path 6510" d="M929.312,2219.847c.361-1.427-.615-4.721.837-4.483,1.061.174,4.694.323,5.917.323,2.914,0,8.108-1.14,8.108-5.574a4.033,4.033,0,0,0-2.724-3.908c-1.337-.558-2.846,1.045-4.214,1.523-3.209,1.122-9.831,2.03-11.526,1.678a3.922,3.922,0,0,0-4.086,2.738c-.325,2.571,1.4,6.489,2.669,8.965a13.632,13.632,0,0,0,2.91,3.807h0Z" transform="translate(-921.584 -2206.088)" fill="#122043"/>
        <path id="Path_6511" data-name="Path 6511" d="M935.066,2256.464a2.193,2.193,0,0,1,2.714.243c.85.708,1.013,1.746.363,2.319a2.194,2.194,0,0,1-2.715-.242C934.579,2258.076,934.417,2257.038,935.066,2256.464Z" transform="translate(-931.081 -2242.385)" fill="#f7b58e"/>
      </g>
      <path id="Path_6512" data-name="Path 6512" d="M890.748,2316.957a23.121,23.121,0,0,0-9.42,1.93,22.66,22.66,0,0,0-12.689,15.678c-2.553,10.844-6.833,36.572,2.982,59.124a48.77,48.77,0,0,0,6.569,0l1.051-53.166L878.5,2378.5h30.438V2354.01s.789,5.532,8.146,10.639,34.95,1.712,34.95,1.712V2360.6s-24.176-5.083-28.117-8.072-12.455-24.542-12.455-24.542a19.446,19.446,0,0,0-13.314-10.333A36.6,36.6,0,0,0,890.748,2316.957Z" transform="translate(-859.383 -2286.559)" fill="#fff"/>
      <g id="Group_5336" data-name="Group 5336" transform="translate(18.739 55.534)">
        <path id="Path_6513" data-name="Path 6513" d="M912.388,2445.249l.717-36.6-.788-.024-.724,36.619Z" transform="translate(-911.593 -2408.63)" fill="#2b2c51"/>
      </g>
      <path id="Path_6514" data-name="Path 6514" d="M942.065,2307.6l-.495,2.959,9.224-.017-.6-2.942Z" transform="translate(-914.611 -2279.766)" fill="#fff"/>
    </g>
    <g id="Group_5347" data-name="Group 5347" transform="translate(907.716 690.583)">
      <g id="Group_5340" data-name="Group 5340" transform="translate(12.76 199.852)">
        <path id="Path_6515" data-name="Path 6515" d="M2161.2,2965.453l-16.047-.019c-2.13.223-4.512.829-4.911,2.677a10.747,10.747,0,0,0-.232,2.445c.568.666,21.846-.089,21.846-.089l.093-.077C2164.207,2967.677,2161.2,2965.453,2161.2,2965.453Z" transform="translate(-2139.983 -2960.107)" fill="#fff"/>
        <path id="Path_6516" data-name="Path 6516" d="M2139.946,2983.876l21.846-.089-.189.85h-21.688Z" transform="translate(-2139.915 -2973.429)"/>
        <g id="Group_5338" data-name="Group 5338" transform="translate(13.424 5.326)">
          <path id="Path_6517" data-name="Path 6517" d="M2190.32,2965.434l-1.445.009.449,1.967h1.4Z" transform="translate(-2188.875 -2965.434)" fill="#9390aa"/>
        </g>
        <g id="Group_5339" data-name="Group 5339" transform="translate(10.325 5.326)">
          <path id="Path_6518" data-name="Path 6518" d="M2179.019,2965.434l-1.445.009.45,1.967h1.4Z" transform="translate(-2177.574 -2965.434)" fill="#9390aa"/>
        </g>
        <path id="Path_6519" data-name="Path 6519" d="M2204.332,2946.007l-1.1,5.345h0a5.205,5.205,0,0,1-4.3.1l-.244-.108-.772-5.339Z" transform="translate(-2182.011 -2946.007)" fill="#f7b58e"/>
      </g>
      <g id="Group_5343" data-name="Group 5343" transform="translate(50.265 199.852)">
        <path id="Path_6520" data-name="Path 6520" d="M2297.992,2965.453l-16.047-.019c-2.131.223-4.512.829-4.911,2.677a10.731,10.731,0,0,0-.232,2.445c.568.666,21.846-.089,21.846-.089l.093-.077C2301,2967.677,2297.992,2965.453,2297.992,2965.453Z" transform="translate(-2276.77 -2960.107)" fill="#fff"/>
        <path id="Path_6521" data-name="Path 6521" d="M2276.733,2983.876l21.846-.089-.189.85H2276.7Z" transform="translate(-2276.703 -2973.429)" fill="#212b53"/>
        <g id="Group_5341" data-name="Group 5341" transform="translate(13.424 5.326)">
          <path id="Path_6522" data-name="Path 6522" d="M2327.107,2965.434l-1.445.009.45,1.967h1.4Z" transform="translate(-2325.662 -2965.434)" fill="#9390aa"/>
        </g>
        <g id="Group_5342" data-name="Group 5342" transform="translate(10.326 5.326)">
          <path id="Path_6523" data-name="Path 6523" d="M2315.806,2965.434l-1.445.009.45,1.967h1.4Z" transform="translate(-2314.362 -2965.434)" fill="#9390aa"/>
        </g>
        <path id="Path_6524" data-name="Path 6524" d="M2334.564,2946.007l.7,5.345h0a5.2,5.2,0,0,1-4.3.1l-.244-.108-2.57-5.339Z" transform="translate(-2314.04 -2946.007)" fill="#f7b58e"/>
      </g>
      <g id="Group_5344" data-name="Group 5344" transform="translate(36.9 20.1)">
        <path id="Path_6525" data-name="Path 6525" d="M2237.9,2290.422l13.216,8.617-4.079,10.443c-.058.148-.135.285-.2.428-.29-.018-.58-.035-.874-.035-.048,0-.095,0-.143.005s-.091-.005-.138-.005a10.2,10.2,0,0,0-8.424,5.106,17.588,17.588,0,0,1-6.239-1.619,6.459,6.459,0,0,1-2.938-2.226C2226.666,2303.729,2237.9,2290.422,2237.9,2290.422Z" transform="translate(-2227.957 -2290.422)" fill="#f7b58e"/>
      </g>
      <path id="Path_6526" data-name="Path 6526" d="M2182.686,2293.123s-1.618,15.339,1.639,25.106c-1.513,1.313-7.066,7.266-8.813-.45s1.961-27.358,1.961-27.358Z" transform="translate(-2152.652 -2270.322)" fill="#f7b58e"/>
      <g id="Group_5346" data-name="Group 5346" transform="translate(0.434 0.201)">
        <g id="Group_5345" data-name="Group 5345" transform="translate(36.192 21.515)">
          <path id="Path_6527" data-name="Path 6527" d="M2228.292,2296.314l3.109,2-1.11,2.322-3.335-1.471Z" transform="translate(-2226.957 -2296.314)" fill="#212b53"/>
          <path id="Path_6528" data-name="Path 6528" d="M2237.85,2303.638c-.312.709-.334,1.385-.05,1.51s.768-.349,1.078-1.059.334-1.386.051-1.511S2238.162,2302.928,2237.85,2303.638Z" transform="translate(-2234.682 -2300.846)" fill="#212b53"/>
        </g>
        <path id="Path_6529" data-name="Path 6529" d="M2094.972,2228.049c0-.03-.009-.058-.012-.087a31.1,31.1,0,0,1,3.007-5.4,27.15,27.15,0,0,0,2.888-4.718l32.108,21.014-2.08,3.924-35.915-13.273A9.964,9.964,0,0,0,2094.972,2228.049Z" transform="translate(-2094.96 -2217.847)" fill="#006854"/>
      </g>
      <path id="Path_6530" data-name="Path 6530" d="M2248.92,2375.71l1.155,7.211h-10.217l-.734-8.836Z" transform="translate(-2199.162 -2331.046)" fill="#f39f85"/>
      <path id="Path_6531" data-name="Path 6531" d="M2133.5,2304.78s-12.067-3.843-15.849-9.01,2.618-33.448,2.618-33.448l-.827-5.089a4.738,4.738,0,0,1,4.634-5.5l3.224-.029a1.845,1.845,0,0,1,1.7,2.594l-4.24,9.541s-3.183,21.42,1.274,23.045a50.233,50.233,0,0,0,11.333,2.351Z" transform="translate(-2110.13 -2242.221)" fill="#f7b58e"/>
      <path id="Path_6532" data-name="Path 6532" d="M2249.718,2303.941l3.1-6.885-2.017-1.267a3.8,3.8,0,0,1-1.574-4.437l2.21-6.489s-6.288-.769-6.1-6.627c0-3.017,4.151-3.033,4.151-3.033a6.036,6.036,0,0,0,5.092,3.016c1.653-.208,6.192.4,9.254,5.746,2.06,3.594,1.157,9.225-.636,13.451-1.606,3.786-5.708,5.9-9.773,6.525Z" transform="translate(-2203.673 -2259.276)" fill="#122043"/>
      <path id="Path_6533" data-name="Path 6533" d="M2236.426,2590.94a227.1,227.1,0,0,1-3.815,30.589,27.349,27.349,0,0,0,.941,14.068c7.207,21.407,17.309,53.6,17.309,53.6h-8.987s-20.36-38.043-25.607-56.914-6.145-24.863-6.145-24.863l6.243-16.476Z" transform="translate(-2178.111 -2488.442)" fill="#4e4c70"/>
      <path id="Path_6534" data-name="Path 6534" d="M2266.083,2340.346a2.923,2.923,0,0,1-1.67,3.206c-1.292.686-2.639.363-3.01-.721a2.924,2.924,0,0,1,1.67-3.207C2264.365,2338.938,2265.713,2339.261,2266.083,2340.346Z" transform="translate(-2215.264 -2305.772)" fill="#f7b58e"/>
      <path id="Path_6535" data-name="Path 6535" d="M2160.509,2442.86h29.3v-37.592a15.95,15.95,0,0,0-14.467-15.881l-20.376-2.467s-2.4,3.667-9.072,12.189a68.8,68.8,0,0,0,17.31,7.241Z" transform="translate(-2131.495 -2340.362)" fill="#0096a1"/>
      <path id="Path_6536" data-name="Path 6536" d="M2199.847,2590.94s-4.139,14.978-19.408,31.766a19.633,19.633,0,0,0-5.7,15.265l3.149,51.223h-9.114s-11.11-42.537-8.714-63.505,10.484-34.748,10.484-34.748Z" transform="translate(-2141.531 -2488.442)" fill="#9390aa"/>
      <path id="Path_6537" data-name="Path 6537" d="M2098.74,2224.032c-1.576,3.27-3.715,5.5-4.776,4.993s-.645-3.577.93-6.847,3.714-5.5,4.776-4.993S2100.316,2220.763,2098.74,2224.032Z" transform="translate(-2093.376 -2217.113)" fill="#0096a1"/>
      <path id="Path_6538" data-name="Path 6538" d="M2188.915,2265.326l-.271.13a4.086,4.086,0,0,1-3.058.191l-.18-.06a5.453,5.453,0,0,1-3.474-3.523h0a1.012,1.012,0,0,1,1.172-1.3l2.03.426a3.062,3.062,0,0,1,1.927,1.312Z" transform="translate(-2157.616 -2248.782)" fill="#f7b58e"/>
    </g>
  </g>
</svg>
